<?xml version="1.0" encoding="utf-8"?>
<!-- Svg Vector Icons : http://www.onlinewebfonts.com/icon -->
<!DOCTYPE svg PUBLIC "-//W3C//DTD SVG 1.1//EN" "http://www.w3.org/Graphics/SVG/1.1/DTD/svg11.dtd">
<svg version="1.1" xmlns="http://www.w3.org/2000/svg" xmlns:xlink="http://www.w3.org/1999/xlink" x="0px" y="0px" viewBox="0 0 1000 1000" enable-background="new 0 0 1000 1000" xml:space="preserve">
<metadata> Svg Vector Icons : http://www.onlinewebfonts.com/icon </metadata>
<g><g transform="translate(0.000000,512.000000) scale(0.100000,-0.100000)"><path d="M4811.9,4985.5c-390.7-103.4-731.6-444.3-835-835c-26.8-99.6-30.6-413.7-30.6-2734.9l-1.9-2621.9L3749-1399.8c-277.7-272-413.7-486.5-528.6-831.2c-264.3-796.7,24.9-1654.7,737.4-2183.3c222.2-164.7,517.1-287.3,812-339c837-147.5,1716,327.5,2091.4,1128.1c193.4,413.7,231.7,873.3,111.1,1317.6c-93.8,346.6-360,762.2-622.4,976.7l-122.6,101.5v2597c0,1792.6-5.8,2631.5-21.1,2710c-46,247.1-222.2,532.4-429,693.3C5489.9,4995.1,5143.3,5071.7,4811.9,4985.5z M5250.5,4679.1c398.4-74.7,651.2-402.2,651.2-842.7v-111.1l-118.8-7.7c-97.7-7.7-124.5-17.2-162.8-61.3c-57.5-68.9-57.5-153.2,3.8-212.6c38.3-40.2,65.1-47.9,162.8-47.9h114.9v-249v-249h-114.9c-143.6,0-210.7-51.7-210.7-162.8c0-111.1,67-162.8,210.7-162.8h114.9v-249v-249h-114.9c-97.7,0-124.5-7.7-162.8-47.9c-61.3-59.4-61.3-143.6-3.8-212.6c38.3-44,65.1-53.6,162.8-61.3l118.8-7.7v-235.6v-235.6l-118.8-7.7c-97.7-7.7-124.5-17.2-162.8-61.3c-57.5-68.9-57.5-153.2,3.8-212.6c38.3-40.2,65.1-47.9,162.8-47.9h114.9v-249v-249h-114.9c-143.6,0-210.7-51.7-210.7-162.8s67-162.8,210.7-162.8h114.9v-249v-249h-114.9c-97.7,0-124.5-7.7-162.8-47.9c-61.3-59.4-61.3-143.6-3.8-212.6c38.3-44,65.1-53.6,162.8-61.3l118.8-7.7v-350.5v-348.6l101.5-67c497.9-333.3,766.1-911.6,702.9-1520.7c-72.8-697.1-538.2-1241.1-1216.1-1417.2c-197.3-51.7-614.8-47.9-823.5,7.6c-327.5,88.1-651.2,295-858,549.7c-113,137.9-266.2,448.2-312.2,632c-53.6,206.8-49.8,639.7,7.7,840.8c99.6,348.6,319.8,655,632,886.7l137.9,103.4v103.4v105.3h101.5c168.5,0,250.9,91.9,195.4,222.1c-30.6,74.7-88.1,103.4-212.6,103.4h-84.3v239.4v239.4h74.7c40.2,0,101.5,9.6,136,21.1c114.9,40.2,139.8,204.9,42.1,277.7c-17.2,15.3-82.4,26.8-141.7,26.8h-111.1v249v249H4381c91.9,0,113,7.7,162.8,55.5c68.9,68.9,70.9,134.1,5.7,210.7c-44,53.6-59.4,59.4-162.8,59.4h-113v249v249h111.1c91.9,0,118.7,7.7,151.3,44.1c57.5,63.2,65.1,103.4,34.5,178.1c-30.6,74.7-88.1,103.4-212.6,103.4h-84.3V1835v239.4h74.7c40.2,0,101.5,9.6,136,21.1c114.9,40.2,139.8,204.9,42.1,277.7c-17.2,15.3-82.4,26.8-141.7,26.8h-111.1v249v249H4381c91.9,0,113,7.7,162.8,55.5c68.9,69,70.9,134.1,5.7,210.7c-44,53.6-59.4,59.4-162.8,59.4h-113v249v249h101.5c168.5,0,250.9,91.9,195.4,222.2c-30.6,74.7-88.1,103.4-210.7,103.4h-82.4l19.2,72.8C4407.8,4522,4815.7,4761.4,5250.5,4679.1z"/><path d="M4980.4,4163.9l-46-36.4l-9.6-3156.2l-9.6-3154.3l-80.4-23c-193.4-57.5-407.9-247.1-499.9-444.3c-46-99.6-51.7-132.1-51.7-331.3c0-212.6,1.9-226,63.2-350.5c160.9-327.5,513.3-515.2,858-457.7c545.8,90,850.3,672.2,610.9,1162.5c-78.5,162.8-203,287.3-360.1,362c-76.6,36.4-153.2,70.9-170.5,76.6c-32.5,9.6-34.5,176.2-34.5,3133.3c0,2338.5-5.7,3135.2-23,3165.8C5177.7,4206,5060.9,4229,4980.4,4163.9z"/><path d="M7527.7,3554.8c-260.5-264.3-348.6-365.8-386.9-448.2c-193.4-411.8-42.1-894.4,337.1-1080.2c375.4-183.9,814-86.2,1039.9,231.7c105.3,145.6,149.4,319.8,137.9,536.3c-15.3,285.4-63.2,363.9-463.5,769.9l-327.5,331.3L7527.7,3554.8z M8085,3212c216.4-226,273.9-323.7,273.9-476.9c0-132.1-57.5-250.9-172.4-358.1c-113-105.3-264.3-159-383-137.9c-233.7,40.2-446.2,275.8-446.2,494.1c0,147.5,55.5,243.2,273.9,467.3c116.8,116.8,222.2,214.5,233.7,214.5C7878.1,3415,7977.7,3323.1,8085,3212z"/><path d="M1808.9,136.2c-166.6-172.4-327.5-350.5-354.3-398.4c-128.3-220.2-149.4-553.5-47.9-771.8c69-151.3,155.1-254.7,270-329.4c258.5-164.7,565-180,846.5-46C2925.4-1219.7,3071-656.7,2822-252.6c-51.7,86.2-653.1,699-685.6,699C2124.9,446.5,1977.4,306.7,1808.9,136.2z M2352.8-208.5c203-208.8,268.1-308.3,285.4-444.3c38.3-275.8-266.2-578.4-542-540.1c-319.8,44.1-536.2,392.6-419.4,670.3c26.8,67,438.6,509.5,471.1,509.5C2153.6-13.2,2245.6-101.3,2352.8-208.5z"/></g></g>
</svg>